<svg xmlns="http://www.w3.org/2000/svg" width="221" height="228" viewBox="0 0 221 228" version="1.1">
	<path d="M 117 107.246 L 117 210.493 169.009 158.496 L 221.017 106.500 169.759 55.261 C 141.566 27.080, 118.162 4.017, 117.750 4.011 C 117.338 4.005, 117 50.461, 117 107.246 M 100 20.956 L 100 27.912 92.750 28.206 L 85.500 28.500 85.500 35.751 L 85.500 43.001 78.250 43.001 L 71 43 71 50 L 71 57 64 57 L 57 57 57 64 L 57 71 50 71 L 43 71 43 77.956 L 43 84.912 35.750 85.206 L 28.500 85.500 28.372 91.795 C 28.301 95.257, 27.948 98.386, 27.586 98.747 C 27.224 99.109, 25.146 99.426, 22.967 99.453 C 20.789 99.479, 19.005 99.893, 19.003 100.372 C 19.001 100.852, 18.345 100.701, 17.544 100.036 C 14.773 97.737, 13.108 101.178, 15.295 104.681 C 15.701 105.330, 15.575 106.144, 15.016 106.490 C 14.457 106.835, 14 108.666, 14 110.559 L 14 114 21 114 L 28 114 28 121.076 L 28 128.151 32.250 127.983 C 34.587 127.890, 37.962 127.856, 39.750 127.907 L 43 128 43 135 L 43 142 50 142 L 57 142 57 146.469 C 57 149.539, 57.391 150.842, 58.250 150.633 C 58.938 150.465, 59.160 150.517, 58.744 150.749 C 58.328 150.981, 58.285 151.652, 58.648 152.240 C 59.039 152.872, 58.837 153.017, 58.155 152.595 C 57.425 152.144, 57 152.639, 57 153.941 C 57 155.824, 57.600 156, 64 156 L 71 156 71 163.500 L 71 171 78.250 171 L 85.500 171 85.500 177.750 L 85.500 184.500 92.750 184.794 L 100 185.088 100 192.096 L 100 199.105 105.250 198.802 L 110.500 198.500 110.814 120.500 C 110.986 77.600, 110.827 36.088, 110.460 28.250 L 109.792 14 104.896 14 L 100 14 100 20.956 M 91.459 37.067 C 91.096 37.653, 91.014 38.348, 91.276 38.610 C 91.538 38.872, 92.019 38.392, 92.345 37.543 C 93.021 35.781, 92.445 35.471, 91.459 37.067 M 15 100.878 C 15 101.886, 17.892 104.483, 18.357 103.893 C 18.528 103.677, 17.842 102.713, 16.833 101.750 C 15.825 100.787, 15 100.395, 15 100.878 M 65 145.378 C 65 145.585, 65.787 146.373, 66.750 147.128 C 68.336 148.371, 68.371 148.336, 67.128 146.750 C 65.821 145.084, 65 144.555, 65 145.378 M -0 220.513 L -0 228.009 110.750 227.754 L 221.500 227.500 221.788 220 L 222.075 212.500 111.038 212.759 L 0 213.017 -0 220.513 M 0.343 220.500 C 0.346 224.900, 0.522 226.576, 0.733 224.224 C 0.945 221.872, 0.942 218.272, 0.727 216.224 C 0.512 214.176, 0.339 216.100, 0.343 220.500 M 12 219.969 C 12 221.354, 11.531 221.757, 10.416 221.329 C 9.141 220.840, 9.092 220.557, 10.166 219.876 C 11.188 219.229, 11.090 219.027, 9.750 219.015 C 8.787 219.007, 8 219.675, 8 220.500 C 8 221.325, 8.563 222.007, 9.250 222.015 C 10.093 222.026, 10.011 222.366, 9 223.060 C 7.814 223.874, 8.023 224.028, 10 223.795 C 11.446 223.624, 12.774 222.657, 13.150 221.500 C 13.722 219.742, 13.815 219.803, 13.916 222 C 14.007 223.995, 14.226 224.197, 15 223 C 15.646 222, 15.974 221.917, 15.985 222.750 C 16.013 225.043, 18.998 224.073, 19.063 221.750 L 19.127 219.500 20.031 221.750 C 21.151 224.535, 22.371 224.743, 21.500 222 C 21.136 220.853, 21.320 220, 21.933 220 C 22.520 220, 23 220.900, 23 222 C 23 223.100, 23.352 224, 23.783 224 C 24.214 224, 24.512 222.775, 24.447 221.278 C 24.330 218.605, 23.770 218.359, 19 218.889 C 18.450 218.950, 17.955 220.012, 17.900 221.250 C 17.805 223.409, 17.768 223.398, 17 221 C 16.560 219.625, 16.155 219.095, 16.100 219.821 C 16.024 220.825, 15.623 220.765, 14.429 219.571 C 12.384 217.527, 12 217.589, 12 219.969 M 35.874 218.459 C 35.603 218.730, 33.158 219.097, 30.441 219.274 C 26.398 219.538, 25.500 219.936, 25.500 221.465 C 25.500 222.492, 26.125 223.542, 26.889 223.796 C 27.732 224.077, 28.004 223.815, 27.580 223.130 C 27.196 222.508, 27.321 222, 27.858 222 C 28.394 222, 29.060 222.563, 29.338 223.250 C 29.615 223.938, 29.878 223.488, 29.921 222.250 C 30.013 219.636, 30.596 219.453, 32.563 221.420 C 33.652 222.509, 33.694 222.956, 32.741 223.341 C 31.837 223.706, 31.823 223.864, 32.691 223.921 C 34.555 224.045, 35.409 221.873, 33.878 220.904 C 32.788 220.213, 32.866 220.027, 34.250 220.015 C 35.338 220.006, 36 220.756, 36 222 C 36 223.100, 36.408 224, 36.906 224 C 37.405 224, 37.591 222.988, 37.320 221.750 C 37.024 220.402, 37.162 219.957, 37.663 220.639 C 38.268 221.462, 38.908 221.340, 39.967 220.199 C 41.263 218.804, 41.248 218.691, 39.839 219.232 C 38.962 219.568, 37.821 219.421, 37.305 218.905 C 36.789 218.389, 36.145 218.188, 35.874 218.459 M 46.079 219.691 C 45.996 221.998, 44.714 223.381, 43.648 222.315 C 43.301 221.968, 43.519 221.080, 44.131 220.342 C 45.839 218.284, 43.551 218.734, 41.655 220.829 C 39.400 223.321, 39.518 223.521, 43.250 223.534 C 45.380 223.541, 47.314 222.712, 48.862 221.127 C 51.089 218.846, 51.106 218.739, 49.160 219.248 C 48.025 219.545, 46.885 219.273, 46.627 218.644 C 46.369 218.015, 46.122 218.486, 46.079 219.691" stroke="none" fill="black" fill-rule="evenodd"/>
</svg>