<svg xmlns="http://www.w3.org/2000/svg" width="253" height="199" viewBox="0 0 253 199" version="1.1">
	<path d="M 35 43 C 35 45.889, 34.833 46, 30.500 46 C 27.167 46, 26 46.389, 26 47.500 C 26 48.611, 27.167 49, 30.500 49 C 33.833 49, 35 49.389, 35 50.500 C 35 51.325, 34.325 52, 33.500 52 C 32.675 52, 32 52.675, 32 53.500 C 32 54.325, 32.675 55, 33.500 55 C 34.633 55, 35 56.222, 35 60 C 35 64.889, 34.933 65, 32 65 C 30 65, 29 65.500, 29 66.500 C 29 67.500, 30 68, 32 68 C 34 68, 35 67.500, 35 66.500 C 35 65.675, 35.675 65, 36.500 65 C 37.708 65, 38 63.444, 38 57 L 38 49 43 49 C 46.778 49, 48 48.633, 48 47.500 C 48 46.367, 46.778 46, 43 46 C 38.111 46, 38 45.933, 38 43 C 38 41, 37.500 40, 36.500 40 C 35.500 40, 35 41, 35 43 M 54 41.500 C 54 42.708, 55.556 43, 62 43 C 68.444 43, 70 42.708, 70 41.500 C 70 40.292, 68.444 40, 62 40 C 55.556 40, 54 40.292, 54 41.500 M 101.638 41.500 C 101.322 42.325, 100.334 43, 99.443 43 C 98.061 43, 97.872 44.138, 98.152 50.750 L 98.481 58.500 95.241 58.813 C 93.236 59.007, 92 59.675, 92 60.563 C 92 61.493, 90.941 62, 89 62 C 86.333 62, 86 62.333, 86 65 C 86 67, 86.500 68, 87.500 68 C 88.325 68, 89 68.675, 89 69.500 C 89 70.500, 90 71, 92 71 C 94.333 71, 95 71.444, 95 73 C 95 74.111, 94.333 75, 93.500 75 C 92.333 75, 92 76.333, 92 81 C 92 86.184, 92.253 87, 93.861 87 C 95.319 87, 95.617 86.445, 95.233 84.440 C 94.852 82.445, 95.214 81.757, 96.872 81.323 C 98.634 80.862, 99 80.014, 99 76.383 L 99 72 107.893 72 C 114.875 72, 116.910 72.322, 117.362 73.500 C 117.756 74.528, 119.363 75, 122.469 75 C 125.830 75, 127 75.387, 127 76.500 C 127 77.548, 128.056 78, 130.500 78 C 132.944 78, 134 78.452, 134 79.500 C 134 80.325, 134.675 81, 135.500 81 C 136.500 81, 137 80, 137 78 C 137 75.333, 137.333 75, 140 75 C 142.027 75, 143 74.503, 143 73.469 C 143 72.626, 143.675 71.678, 144.500 71.362 C 145.325 71.045, 146 70.159, 146 69.393 C 146 68.627, 146.675 68, 147.500 68 C 148.633 68, 149 69.222, 149 73 C 149 77.333, 149.267 78, 151 78 C 152.111 78, 153 77.333, 153 76.500 C 153 75.500, 154 75, 156 75 C 158.889 75, 159 75.167, 159 79.500 C 159 82.833, 158.611 84, 157.500 84 C 156.675 84, 156 84.646, 156 85.437 C 156 86.327, 154.763 86.993, 152.750 87.187 C 149.500 87.500, 149.500 87.500, 149.202 93.750 C 148.980 98.411, 148.535 100, 147.452 100 C 146.654 100, 146 100.675, 146 101.500 C 146 102.325, 145.325 103, 144.500 103 C 143.675 103, 143 102.325, 143 101.500 C 143 100.675, 143.626 100, 144.392 100 C 145.895 100, 147.437 95.516, 146.472 93.954 C 146.147 93.429, 145.234 93, 144.441 93 C 143.648 93, 143.112 92.438, 143.250 91.750 C 143.423 90.887, 141.644 90.405, 137.508 90.193 C 133.585 89.992, 131.237 89.387, 130.708 88.443 C 130.264 87.649, 129.248 87, 128.450 87 C 127.332 87, 127 88.488, 127 93.500 C 127 98.611, 126.679 100, 125.500 100 C 124.675 100, 124 100.675, 124 101.500 C 124 102.611, 122.833 103, 119.500 103 C 116.167 103, 115 102.611, 115 101.500 C 115 100.452, 113.944 100, 111.500 100 C 109.056 100, 108 100.452, 108 101.500 C 108 102.325, 107.325 103, 106.500 103 C 105.292 103, 105 104.556, 105 111 C 105 117.444, 104.708 119, 103.500 119 C 102.292 119, 102 120.556, 102 127 C 102 133.444, 102.292 135, 103.500 135 C 104.325 135, 105 135.675, 105 136.500 C 105 137.548, 103.944 138, 101.500 138 C 98.667 138, 98 138.381, 98 140 C 98 141.100, 97.550 142, 97 142 C 96.450 142, 96 141.100, 96 140 C 96 138.667, 95.333 138, 94 138 C 92.444 138, 92 137.333, 92 135 C 92 133, 92.500 132, 93.500 132 C 94.669 132, 95 130.656, 95 125.906 C 95 120.654, 95.276 119.741, 97 119.290 C 99.617 118.605, 99.817 113.429, 97.250 112.815 C 94.518 112.162, 92 113.005, 92 114.573 C 92 115.358, 91.325 116, 90.500 116 C 89.500 116, 89 117, 89 119 C 89 121, 88.500 122, 87.500 122 C 86.367 122, 86 123.222, 86 127 C 86 130.778, 85.633 132, 84.500 132 C 83.389 132, 83 133.167, 83 136.500 C 83 140.833, 83.111 141, 86 141 C 88.333 141, 89 141.444, 89 143 C 89 144.630, 89.667 145, 92.607 145 C 95.485 145, 96.091 145.320, 95.607 146.582 C 95.273 147.452, 95 148.802, 95 149.582 C 95 150.362, 94.325 151, 93.500 151 C 92.500 151, 92 152, 92 154 C 92 156, 91.500 157, 90.500 157 C 89.452 157, 89 158.056, 89 160.500 C 89 163.333, 89.381 164, 91 164 C 92.556 164, 93 163.333, 93 161 C 93 159.350, 93.450 158, 94 158 C 94.550 158, 95 159.350, 95 161 C 95 163, 95.500 164, 96.500 164 C 97.679 164, 98 165.389, 98 170.500 C 98 175.389, 98.345 177, 99.393 177 C 101.352 177, 102 179.257, 102 186.082 C 102 190.830, 101.685 192, 100.406 192 C 99.530 192, 98.577 192.900, 98.290 194 C 98.002 195.100, 97.144 196, 96.383 196 C 95.623 196, 95 196.691, 95 197.536 C 95 198.832, 96.524 199.028, 104.750 198.786 L 114.500 198.500 115 185.500 C 115.314 177.324, 115.871 172.686, 116.500 173 C 117.112 173.306, 117.613 170.494, 117.792 165.750 L 118.084 158 121.042 158 C 123.662 158, 124 158.343, 124 161 C 124 163, 124.500 164, 125.500 164 C 126.325 164, 127 164.675, 127 165.500 C 127 166.325, 127.675 167, 128.500 167 C 129.708 167, 130 168.556, 130 175 C 130 181.444, 129.708 183, 128.500 183 C 127.675 183, 127 183.675, 127 184.500 C 127 185.679, 128.389 186, 133.500 186 L 140 186 140 189 C 140 191, 140.500 192, 141.500 192 C 142.548 192, 143 193.056, 143 195.500 L 143 199 151 199 C 157.444 199, 159 198.708, 159 197.500 C 159 196.675, 158.325 196, 157.500 196 C 156.367 196, 156 194.778, 156 191 C 156 187.222, 155.633 186, 154.500 186 C 153.675 186, 153 185.325, 153 184.500 C 153 183.333, 154.333 183, 159 183 C 163.462 183, 165 182.643, 165 181.607 C 165 180.841, 164.325 179.955, 163.500 179.638 C 162.623 179.302, 162 177.803, 162 176.031 C 162 174.003, 161.503 173, 160.500 173 C 159.500 173, 159 172, 159 170 C 159 168, 158.500 167, 157.500 167 C 156.500 167, 156 166, 156 164 C 156 162, 155.500 161, 154.500 161 C 153.367 161, 153 159.778, 153 156 C 153 152.222, 152.633 151, 151.500 151 C 150.675 151, 150 150.377, 150 149.617 C 150 148.856, 149.100 147.998, 148 147.710 C 146.900 147.423, 146 146.695, 146 146.094 C 146 145.414, 148.462 145, 152.500 145 C 157.450 145, 159 144.661, 159 143.579 C 159 142.798, 160.350 141.862, 162 141.500 C 164.782 140.889, 165 140.519, 165 136.421 C 165 133.158, 164.607 132, 163.500 132 C 162.367 132, 162 130.778, 162 127 C 162 123.222, 161.633 122, 160.500 122 C 159.389 122, 159 120.833, 159 117.500 C 159 114.167, 158.611 113, 157.500 113 C 156.452 113, 156 111.944, 156 109.500 C 156 107.056, 155.548 106, 154.500 106 C 153.389 106, 153 104.833, 153 101.500 L 153 97 157.500 97 C 160.833 97, 162 96.611, 162 95.500 C 162 94.675, 161.325 94, 160.500 94 C 159.367 94, 159 92.778, 159 89 C 159 85.222, 159.367 84, 160.500 84 C 161.325 84, 162 83.325, 162 82.500 C 162 81.675, 162.675 81, 163.500 81 C 164.325 81, 165 81.675, 165 82.500 C 165 83.333, 165.889 84, 167 84 C 168.556 84, 169 83.333, 169 81 C 169 79.276, 168.468 77.993, 167.750 77.983 C 165.919 77.957, 161.738 73.232, 162.482 72.029 C 162.832 71.463, 165.116 71, 167.559 71 C 170.840 71, 172 70.608, 172 69.500 C 172 68.675, 171.325 68, 170.500 68 C 169.675 68, 169 67.325, 169 66.500 C 169 65.452, 167.944 65, 165.500 65 C 163.056 65, 162 64.548, 162 63.500 C 162 62.675, 161.325 62, 160.500 62 C 159.367 62, 159 60.778, 159 57 C 159 52.111, 159.067 52, 162 52 C 164 52, 165 51.500, 165 50.500 C 165 49.389, 163.833 49, 160.500 49 C 157.167 49, 156 48.611, 156 47.500 C 156 46.675, 156.675 46, 157.500 46 C 158.325 46, 159 45.325, 159 44.500 C 159 43.675, 159.675 43, 160.500 43 C 161.325 43, 162 42.325, 162 41.500 C 162 40.675, 161.325 40, 160.500 40 C 159.675 40, 159 40.675, 159 41.500 C 159 42.500, 158 43, 156 43 C 154 43, 153 42.500, 153 41.500 C 153 40.206, 149.512 40, 127.607 40 C 105.958 40, 102.129 40.221, 101.638 41.500 M 51 50.500 C 51 51.728, 52.722 52, 60.500 52 L 70 52 70 55 C 70 57, 70.500 58, 71.500 58 C 72.611 58, 73 56.833, 73 53.500 L 73 49 62 49 C 52.889 49, 51 49.258, 51 50.500 M 128 51 C 128 52.100, 128.450 53, 129 53 C 129.550 53, 130 53.675, 130 54.500 C 130 55.500, 131 56, 133 56 C 136.186 56, 137.220 53.682, 134.500 52.638 C 133.675 52.322, 133 51.374, 133 50.531 C 133 49.565, 132.078 49, 130.500 49 C 128.667 49, 128 49.533, 128 51 M 140 56 C 140 58.667, 140.333 59, 143 59 C 145.667 59, 146 58.667, 146 56 C 146 53.333, 145.667 53, 143 53 C 140.333 53, 140 53.333, 140 56 M 29 56.531 C 29 57.339, 29.675 58, 30.500 58 C 31.325 58, 32 57.598, 32 57.107 C 32 56.616, 31.325 55.955, 30.500 55.638 C 29.586 55.288, 29 55.637, 29 56.531 M 120.683 59.385 C 120.151 60.771, 120.995 61, 126.625 61 C 132.346 61, 133.254 61.256, 133.710 63 C 134.177 64.787, 135.074 65, 142.117 65 C 148.457 65, 150 65.294, 150 66.500 C 150 67.325, 150.450 68, 151 68 C 151.550 68, 152 67.325, 152 66.500 C 152 65.675, 152.648 65, 153.441 65 C 155.837 65, 156.352 62.905, 154.101 62.316 C 152.945 62.014, 152 61.144, 152 60.383 C 152 59.623, 151.550 59, 151 59 C 150.450 59, 150 59.703, 150 60.561 C 150 61.855, 149.187 62.003, 145.250 61.422 C 142.637 61.037, 140.196 60.250, 139.825 59.673 C 139.453 59.095, 135.134 58.431, 130.226 58.196 C 122.678 57.836, 121.207 58.019, 120.683 59.385 M 26 60.583 C 26 61.454, 26.534 61.989, 27.188 61.771 C 29.042 61.153, 29.349 59, 27.583 59 C 26.712 59, 26 59.712, 26 60.583 M 67 60.500 C 67 61.325, 66.373 62, 65.607 62 C 64.841 62, 63.955 62.675, 63.638 63.500 C 63.302 64.377, 61.803 65, 60.031 65 C 58.003 65, 57 65.497, 57 66.500 C 57 67.548, 58.056 68, 60.500 68 C 62.944 68, 64 67.548, 64 66.500 C 64 65.675, 64.675 65, 65.500 65 C 66.325 65, 67 64.325, 67 63.500 C 67 62.675, 67.675 62, 68.500 62 C 69.325 62, 70 61.325, 70 60.500 C 70 59.675, 69.325 59, 68.500 59 C 67.675 59, 67 59.675, 67 60.500 M 102 75.945 C 102 77.562, 102.640 78, 105 78 C 107 78, 108 78.500, 108 79.500 C 108 80.349, 108.896 81, 110.063 81 C 111.789 81, 112.075 80.468, 111.813 77.750 C 111.513 74.634, 111.305 74.487, 106.750 74.195 C 102.526 73.924, 102 74.118, 102 75.945 M 96.750 90.689 C 95.787 90.941, 95 91.789, 95 92.573 C 95 93.598, 93.731 94, 90.500 94 C 87.167 94, 86 94.389, 86 95.500 C 86 96.325, 86.675 97, 87.500 97 C 88.325 97, 89 97.675, 89 98.500 C 89 99.325, 89.675 100, 90.500 100 C 91.325 100, 92 100.675, 92 101.500 C 92 102.325, 92.675 103, 93.500 103 C 94.325 103, 95 103.675, 95 104.500 C 95 105.333, 95.889 106, 97 106 C 98.111 106, 99 105.333, 99 104.500 C 99 103.675, 98.325 103, 97.500 103 C 96.675 103, 96 102.325, 96 101.500 C 96 100.675, 95.325 100, 94.500 100 C 93.675 100, 93 99.325, 93 98.500 C 93 97.675, 93.675 97, 94.500 97 C 95.325 97, 96 96.325, 96 95.500 C 96 94.500, 97 94, 99 94 C 101.333 94, 102 93.556, 102 92 C 102 90.013, 100.638 89.673, 96.750 90.689 M 197 103 C 197 105.889, 196.833 106, 192.500 106 C 189.167 106, 188 106.389, 188 107.500 C 188 108.611, 189.167 109, 192.500 109 C 196.333 109, 197 109.296, 197 111 C 197 112.111, 196.333 113, 195.500 113 C 194.675 113, 194 113.675, 194 114.500 C 194 115.325, 193.325 116, 192.500 116 C 191.675 116, 191 116.675, 191 117.500 C 191 118.325, 190.325 119, 189.500 119 C 188.675 119, 188 119.675, 188 120.500 C 188 121.325, 188.675 122, 189.500 122 C 190.325 122, 191 121.325, 191 120.500 C 191 119.675, 191.675 119, 192.500 119 C 193.325 119, 194 118.325, 194 117.500 C 194 116.675, 194.675 116, 195.500 116 C 196.633 116, 197 117.222, 197 121 C 197 125.889, 196.933 126, 194 126 C 192 126, 191 126.500, 191 127.500 C 191 128.500, 192 129, 194 129 C 195.954 129, 197 128.494, 197 127.550 C 197 126.752, 197.653 125.734, 198.451 125.287 C 199.471 124.716, 199.992 122.249, 200.201 116.987 L 200.500 109.500 205.250 109.195 C 208.585 108.981, 210 108.460, 210 107.445 C 210 106.378, 208.694 106, 205 106 C 200.111 106, 200 105.933, 200 103 C 200 101, 199.500 100, 198.500 100 C 197.500 100, 197 101, 197 103 M 216 101.500 C 216 102.708, 217.556 103, 224 103 C 230.444 103, 232 102.708, 232 101.500 C 232 100.292, 230.444 100, 224 100 C 217.556 100, 216 100.292, 216 101.500 M 130 104.500 C 130 105.325, 129.325 106, 128.500 106 C 127.229 106, 127 108.444, 127 122 C 127 137.522, 127.062 138, 129.073 138 C 130.509 138, 131.043 138.538, 130.811 139.750 C 130.512 141.307, 128.852 141.531, 115.779 141.776 C 103.318 142.011, 101.169 142.277, 101.649 143.526 C 101.966 144.355, 103.481 145, 105.107 145 C 106.698 145, 108 145.450, 108 146 C 108 146.609, 112.500 147, 119.500 147 C 126.500 147, 131 146.609, 131 146 C 131 145.450, 132.336 145, 133.969 145 C 136.197 145, 136.794 144.626, 136.362 143.500 C 136.045 142.675, 135.159 142, 134.393 142 C 133.468 142, 133 140.825, 133 138.500 C 133 136.056, 132.548 135, 131.500 135 C 130.272 135, 130 133.278, 130 125.500 C 130 116.667, 130.140 116, 132 116 C 133.111 116, 134 115.333, 134 114.500 C 134 113.500, 135 113, 137 113 C 139 113, 140 112.500, 140 111.500 C 140 110.675, 139.325 110, 138.500 110 C 137.675 110, 136.992 109.438, 136.983 108.750 C 136.962 107.226, 132.645 103, 131.109 103 C 130.499 103, 130 103.675, 130 104.500 M 145.250 108.496 C 143.763 110.185, 143.569 116, 145 116 C 145.550 116, 146 114.425, 146 112.500 C 146 110.056, 146.452 109, 147.500 109 C 148.325 109, 149 108.550, 149 108 C 149 106.543, 146.702 106.847, 145.250 108.496 M 150 113 C 150 114.650, 150.450 116, 151 116 C 151.550 116, 152 114.650, 152 113 C 152 111.350, 151.550 110, 151 110 C 150.450 110, 150 111.350, 150 113 M 213 111.500 C 213 112.728, 214.722 113, 222.500 113 L 232 113 232 116 C 232 118, 231.500 119, 230.500 119 C 229.675 119, 229 119.675, 229 120.500 C 229 121.325, 228.377 122, 227.617 122 C 226.856 122, 225.998 122.900, 225.710 124 C 225.326 125.471, 224.346 126, 222.010 126 C 217.820 126, 218.513 128.387, 222.827 128.813 C 225.467 129.074, 226 128.780, 226 127.063 C 226 125.896, 226.651 125, 227.500 125 C 228.325 125, 229 124.325, 229 123.500 C 229 122.675, 229.675 122, 230.500 122 C 231.325 122, 232 121.325, 232 120.500 C 232 119.675, 232.675 119, 233.500 119 C 234.611 119, 235 117.833, 235 114.500 L 235 110 224 110 C 214.889 110, 213 110.258, 213 111.500 M 22 119 C 22 121.889, 21.833 122, 17.500 122 C 14.167 122, 13 122.389, 13 123.500 C 13 124.611, 14.167 125, 17.500 125 C 21.333 125, 22 125.296, 22 127 C 22 128.111, 21.333 129, 20.500 129 C 19.675 129, 19 129.675, 19 130.500 C 19 131.325, 18.325 132, 17.500 132 C 16.675 132, 16 132.675, 16 133.500 C 16 134.325, 15.325 135, 14.500 135 C 13.675 135, 13 135.675, 13 136.500 C 13 137.325, 13.675 138, 14.500 138 C 15.325 138, 16 137.325, 16 136.500 C 16 135.675, 16.675 135, 17.500 135 C 18.325 135, 19 134.325, 19 133.500 C 19 132.675, 19.675 132, 20.500 132 C 21.611 132, 22 133.167, 22 136.500 C 22 139.776, 22.397 141, 23.458 141 C 24.585 141, 24.982 139.239, 25.208 133.250 L 25.500 125.500 30.250 125.195 C 33.585 124.981, 35 124.460, 35 123.445 C 35 122.378, 33.694 122, 30 122 C 25.111 122, 25 121.933, 25 119 C 25 117, 24.500 116, 23.500 116 C 22.500 116, 22 117, 22 119 M 42 117.500 C 42 118.700, 43.500 119, 49.500 119 C 55.500 119, 57 118.700, 57 117.500 C 57 116.300, 55.500 116, 49.500 116 C 43.500 116, 42 116.300, 42 117.500 M 143.871 119.250 C 143.072 120.799, 143.680 125, 144.704 125 C 145.477 125, 146 123.791, 146 122 C 146 120.350, 145.550 119, 145 119 C 144.450 119, 143.942 119.112, 143.871 119.250 M 150 122 C 150 123.650, 150.450 125, 151 125 C 151.550 125, 152 123.650, 152 122 C 152 120.350, 151.550 119, 151 119 C 150.450 119, 150 120.350, 150 122 M 38.248 127.250 C 38.529 128.100, 41.599 128.592, 47.831 128.788 L 57 129.075 57 132.038 C 57 134.004, 56.496 135, 55.500 135 C 54.675 135, 54 135.675, 54 136.500 C 54 137.325, 53.377 138, 52.617 138 C 51.856 138, 50.998 138.900, 50.710 140 C 50.357 141.351, 49.346 142, 47.594 142 C 46.167 142, 45 142.563, 45 143.250 C 45 143.972, 46.267 144.500, 48 144.500 C 50.190 144.500, 51 144.028, 51 142.750 C 51 141.787, 51.675 141, 52.500 141 C 53.325 141, 54 140.325, 54 139.500 C 54 138.675, 54.675 138, 55.500 138 C 56.325 138, 57 137.325, 57 136.500 C 57 135.675, 57.675 135, 58.500 135 C 59.611 135, 60 133.833, 60 130.500 L 60 126 48.917 126 C 40.496 126, 37.933 126.300, 38.248 127.250 M 147 127 C 147 127.550, 147.450 128, 148 128 C 148.550 128, 149 127.550, 149 127 C 149 126.450, 148.550 126, 148 126 C 147.450 126, 147 126.450, 147 127 M 16 142.887 C 16 143.374, 17.350 143.971, 19 144.213 C 21.047 144.514, 22 144.232, 22 143.327 C 22 142.519, 20.826 142, 19 142 C 17.350 142, 16 142.399, 16 142.887 M 86 165.500 C 86 166.325, 85.325 167, 84.500 167 C 83.500 167, 83 168, 83 170 C 83 172.333, 82.556 173, 81 173 C 79.381 173, 79 173.667, 79 176.500 C 79 178.944, 78.548 180, 77.500 180 C 76.675 180, 76 180.675, 76 181.500 C 76 182.548, 77.056 183, 79.500 183 C 82.722 183, 83 182.762, 83 180 C 83 178, 83.500 177, 84.500 177 C 85.629 177, 86 175.791, 86 172.117 C 86 167.996, 86.328 167.147, 88.101 166.684 C 89.257 166.381, 89.905 165.655, 89.542 165.067 C 88.554 163.469, 86 163.781, 86 165.500" stroke="none" fill="black" fill-rule="evenodd"/>
</svg>