<svg xmlns="http://www.w3.org/2000/svg" width="225" height="225" viewBox="0 0 225 225" version="1.1">
	<path d="M 149.250 88.083 C 146.545 89.108, 146.264 92.536, 148.776 93.880 C 151.062 95.104, 154 93.525, 154 91.073 C 154 88.408, 151.892 87.082, 149.250 88.083 M 18.362 89.500 C 17.417 91.962, 18.776 94, 21.362 94 C 22.695 94, 24.045 93.325, 24.362 92.500 C 25.306 90.038, 23.947 88, 21.362 88 C 20.028 88, 18.678 88.675, 18.362 89.500 M 128.165 92.750 C 127.614 95.362, 126.616 100.425, 125.947 104 C 124.148 113.612, 118.184 119.286, 113.928 115.435 C 111.242 113.004, 111.522 111.335, 114.750 110.534 C 118.944 109.493, 122 106.118, 122 102.526 C 122 98.698, 120.443 97, 116.935 97 C 108.380 97, 102.485 111.576, 108.576 117.667 C 110.749 119.840, 111.782 120.158, 115.174 119.703 C 117.410 119.404, 120.299 118.128, 121.680 116.832 L 124.163 114.500 123.525 117.044 C 122.953 119.322, 123.179 119.583, 125.693 119.544 C 128.910 119.494, 129.963 118.440, 129.985 115.250 C 130.005 112.258, 131.341 112.401, 133.041 115.577 C 134.624 118.535, 136.885 119.987, 139.346 119.625 C 141.712 119.278, 141.684 119.044, 138.701 114.319 L 136.062 110.138 139.600 106.600 C 146.006 100.194, 142.321 93.520, 135.767 99.658 L 132.732 102.500 133.339 98.500 C 133.673 96.300, 134.240 93.037, 134.598 91.250 C 135.219 88.153, 135.107 88, 132.208 88 C 129.386 88, 129.093 88.344, 128.165 92.750 M 186.362 89.500 C 185.417 91.962, 186.776 94, 189.362 94 C 191.947 94, 193.306 91.962, 192.362 89.500 C 192.045 88.675, 190.695 88, 189.362 88 C 188.028 88, 186.678 88.675, 186.362 89.500 M 161.250 91.031 C 159.936 91.559, 159 92.794, 159 93.999 C 159 95.134, 158.325 96.322, 157.500 96.638 C 155.906 97.250, 155.397 100, 156.878 100 C 157.698 100, 155.937 110.408, 154.474 114.212 C 153.802 115.959, 150.284 117.617, 149.312 116.646 C 149.017 116.350, 149.517 112.597, 150.425 108.304 C 151.332 104.012, 152.240 99.713, 152.443 98.750 C 152.736 97.364, 152.130 97, 149.530 97 L 146.248 97 144.502 105.989 C 142.878 114.349, 142.871 115.155, 144.401 117.489 C 146.305 120.395, 147.937 120.601, 152.080 118.459 C 154.765 117.070, 155.213 117.070, 156.602 118.459 C 157.449 119.306, 158.808 120, 159.621 120 C 162.156 120, 166.628 117.216, 168.375 114.551 C 170.516 111.282, 169.053 111.251, 166 114.500 C 162.419 118.311, 160.627 117.817, 161.467 113.250 C 163.519 102.089, 164.163 100.191, 166.061 99.694 C 168.401 99.082, 168.654 97, 166.389 97 C 165.089 97, 164.904 96.324, 165.434 93.500 C 166.141 89.733, 165.467 89.336, 161.250 91.031 M 15.609 104.123 C 13.257 114.535, 13.450 117.792, 16.500 119.182 C 18.355 120.027, 19.636 120.031, 21.464 119.198 C 22.820 118.581, 24.150 118.433, 24.420 118.871 C 24.691 119.309, 26.197 119.478, 27.767 119.247 C 30.451 118.854, 30.694 118.411, 31.815 111.873 C 33.070 104.555, 35.295 100, 37.615 100 C 39.333 100, 39.332 100.090, 37.500 109.662 C 35.566 119.771, 35.544 119.586, 38.666 119.449 C 41.704 119.316, 42.410 117.957, 43.476 110.187 C 44.186 105.012, 48.007 98.679, 49.513 100.181 C 49.888 100.556, 49.701 103.165, 49.098 105.980 C 47.296 114.383, 47.634 117.876, 50.369 119.122 C 52.181 119.948, 53.405 119.852, 55.577 118.714 C 58.081 117.402, 58.681 117.400, 60.667 118.702 C 63.246 120.391, 68.162 119.714, 70.078 117.406 C 71.132 116.135, 71.548 116.211, 73.186 117.970 C 75.434 120.382, 77.773 120.548, 80.696 118.500 C 82.617 117.155, 83.148 117.178, 85.840 118.723 C 88.633 120.326, 89.079 120.333, 92.259 118.817 L 95.675 117.187 94.686 122.188 C 93.762 126.864, 93.529 127.156, 91.099 126.672 C 88.803 126.215, 85 127.818, 85 129.244 C 85 130.237, 89.306 130.889, 92.134 130.323 C 98.265 129.097, 100.982 123.663, 104.477 105.643 C 105.314 101.322, 106 97.609, 106 97.393 C 106 97.177, 102.791 97, 98.868 97 C 87.557 97, 83.794 100.291, 82.177 111.597 C 81.677 115.087, 80.983 116.572, 79.739 116.812 C 77.592 117.225, 77.544 115.517, 79.480 107.500 C 82.016 96.997, 82.017 97, 74.450 97 C 63.805 97, 59.611 100.571, 58.135 110.891 C 57.655 114.244, 56.982 115.572, 55.630 115.833 C 53.926 116.161, 53.842 115.694, 54.553 109.844 C 55.380 103.045, 55.347 99.370, 54.445 97.911 C 53.476 96.343, 49.379 96.914, 46.747 98.984 C 44.232 100.963, 44.224 100.963, 43.706 98.984 C 43.332 97.555, 42.338 97, 40.153 97 C 38.484 97, 36.840 97.450, 36.500 98 C 36.160 98.550, 35.432 99, 34.882 99 C 34.332 99, 34.160 98.550, 34.500 98 C 34.867 97.407, 33.707 97, 31.649 97 L 28.181 97 27.066 104.250 C 25.791 112.549, 24.175 116.343, 21.716 116.816 C 19.584 117.227, 19.538 114.922, 21.500 106 C 23.446 97.153, 23.422 97, 20.109 97 C 17.341 97, 17.148 97.306, 15.609 104.123 M 184.012 102.250 C 183.377 105.138, 182.604 109.844, 182.293 112.710 C 181.765 117.585, 181.894 117.994, 184.303 119.092 C 186.450 120.070, 187.519 119.931, 190.733 118.256 C 194.570 116.256, 194.598 116.256, 197.020 118.218 C 201.841 122.121, 209.733 118.608, 212.597 111.285 C 213.504 108.966, 215.315 106.368, 216.623 105.512 C 219.614 103.552, 219.860 101.469, 216.914 103.046 C 215.767 103.660, 214.755 104.013, 214.664 103.831 C 211.686 97.833, 211.332 97.491, 207.779 97.193 C 200.655 96.596, 194 102.884, 194 110.213 C 194 113.647, 191.615 117, 189.171 117 C 187.665 117, 187.694 116.102, 189.500 106.662 C 191.427 96.591, 191.487 97, 188.083 97 C 185.377 97, 185.082 97.380, 184.012 102.250 M 68.783 100.750 C 64.880 105.225, 63.279 113.696, 65.855 116.238 C 68.016 118.370, 72.640 112.253, 73.479 106.152 C 73.862 103.369, 73.884 100.621, 73.528 100.046 C 72.559 98.478, 70.499 98.783, 68.783 100.750 M 91.887 102.158 C 89.016 106.190, 87.998 115.402, 90.325 116.294 C 93.357 117.458, 96.655 113.431, 97.915 107.025 C 98.570 103.699, 98.830 100.533, 98.493 99.989 C 97.277 98.021, 94.088 99.067, 91.887 102.158 M 115.783 100.750 C 114.197 102.568, 112 106.450, 112 107.434 C 112 107.745, 112.874 108, 113.943 108 C 116.295 108, 119 104.404, 119 101.277 C 119 98.553, 117.863 98.366, 115.783 100.750 M 134.167 103.941 C 130.722 108.229, 130.412 109, 132.132 109 C 133.458 109, 140 102.289, 140 100.929 C 140 98.782, 137.117 100.271, 134.167 103.941 M 201.449 103.468 C 198.716 110.009, 200.357 117.952, 204.141 116.499 C 205.835 115.850, 208 111.878, 208 109.422 C 208 108.605, 207.325 107.678, 206.500 107.362 C 204.592 106.630, 204.552 104.109, 206.437 103.386 C 208.439 102.617, 207.206 100, 204.842 100 C 203.569 100, 202.398 101.197, 201.449 103.468 M 171.667 113.667 C 170.153 115.180, 171.066 118.886, 173.112 119.535 C 175.924 120.428, 178.428 117.924, 177.535 115.112 C 176.886 113.066, 173.180 112.153, 171.667 113.667" stroke="none" fill="black" fill-rule="evenodd"/>
</svg>